<?xml version="1.0" standalone="no"?><!DOCTYPE svg PUBLIC "-//W3C//DTD SVG 1.1//EN" "http://www.w3.org/Graphics/SVG/1.1/DTD/svg11.dtd"><svg t="1609050372922" class="icon" viewBox="0 0 1024 1024" version="1.1" xmlns="http://www.w3.org/2000/svg" p-id="616" data-spm-anchor-id="a313x.7781069.0.i3" xmlns:xlink="http://www.w3.org/1999/xlink" width="16" height="16"><defs><style type="text/css"></style></defs><path d="M894.8 612.6c-12.7-12.7-33.3-12.7-46 0L768.4 693 688 612.6c-12.7-12.7-33.3-12.7-46 0-12.7 12.7-12.7 33.3 0 46l80.4 80.4-80.4 80.4c-12.7 12.7-12.7 33.3 0 46 6.3 6.3 14.7 9.5 23 9.5s16.6-3.2 23-9.5l80.4-80.4 80.4 80.4c6.3 6.3 14.7 9.5 23 9.5s16.6-3.2 23-9.5c12.7-12.7 12.7-33.3 0-46L814.4 739l80.4-80.4c12.7-12.7 12.7-33.3 0-46zM171.4 681.9h-41.5V173h535v38c0 19.3 15.7 35 35 35s35-15.7 35-35v-73c0-19.3-15.7-35-35-35h-605c-19.3 0-35 15.7-35 35v578.9c0 19.3 15.7 35 35 35h76.5c19.3 0 35-15.7 35-35s-15.6-35-35-35z" p-id="617" fill="#ffffff"></path><path d="M869.9 282.4h-605c-19.3 0-35 15.7-35 35v578.9c0 19.3 15.7 35 35 35h292.8c19.3 0 35-15.7 35-35s-15.7-35-35-35H299.9V352.4h535v156.4c0 19.3 15.7 35 35 35s35-15.7 35-35V317.4c0-19.3-15.7-35-35-35z" p-id="618" fill="#ffffff"></path><path d="M750.7 459.6c0-19.3-15.7-35-35-35H420.1c-19.3 0-35 15.7-35 35s15.7 35 35 35h295.7c19.3 0 34.9-15.7 34.9-35zM579.9 603.7c0-19.3-15.7-35-35-35H420.1c-19.3 0-35 15.7-35 35s15.7 35 35 35h124.8c19.3 0 35-15.7 35-35zM420.1 712.7c-19.3 0-35 15.7-35 35s15.7 35 35 35h59.4c19.3 0 35-15.7 35-35s-15.7-35-35-35h-59.4z" p-id="619" fill="#ffffff"></path></svg>