<?xml version="1.0" standalone="no"?><!DOCTYPE svg PUBLIC "-//W3C//DTD SVG 1.1//EN" "http://www.w3.org/Graphics/SVG/1.1/DTD/svg11.dtd"><svg t="1609086561596" class="icon" viewBox="0 0 1028 1024" version="1.1" xmlns="http://www.w3.org/2000/svg" p-id="3691" xmlns:xlink="http://www.w3.org/1999/xlink" width="16.0625" height="16"><defs><style type="text/css"></style></defs><path d="M512 1024 73.6 1024C22.4 1024 0 985.6 0 934.4L0 89.6C0 38.4 28.8 0 73.6 0l844.8 0C969.6 0 1024 38.4 1024 89.6L1024 512l-64 0L960 89.6C960 70.4 937.6 64 918.4 64L73.6 64C60.8 64 64 76.8 64 89.6l0 844.8C64 953.6 60.8 960 73.6 960L512 960 512 1024z" p-id="3692" fill="#ffffff"></path><path d="M681.6 723.2l44.8-44.8 300.8 300.8-51.2 44.8L681.6 723.2z" p-id="3693" fill="#ffffff"></path><path d="M320 768 320 512 131.2 512l347.456-409.6L832 512l-192 0 0 256M384 704l192 0L576 448l126.016 0L480 198.4 259.2 448 384 448 384 704z" p-id="3694" fill="#ffffff"></path><path d="M720 1024l-44.8-44.8 300.8-300.8 44.8 44.8L720 1024z" p-id="3695" fill="#ffffff"></path></svg>